<?xml version="1.0" encoding="utf-8"?>
<!-- Generator: Adobe Illustrator 18.1.1, SVG Export Plug-In . SVG Version: 6.00 Build 0)  -->
<svg version="1.1" id="图层_1" xmlns="http://www.w3.org/2000/svg" xmlns:xlink="http://www.w3.org/1999/xlink" x="0px" y="0px"
	 viewBox="0 0 1000 800" enable-background="new 0 0 1000 800" xml:space="preserve">
<path fill-rule="evenodd" clip-rule="evenodd" fill="none" stroke="#000000" stroke-width="0.5" stroke-miterlimit="10" d="M761,351
	c9.2,0.2,10.1,3.1,15,7c14.3-1.2,24.9-9.9,43-5c0.3,0.7,0.7,1.3,1,2c-1.3,2.7-2.7,5.3-4,8c-35.3,12.7-26.2,23.3-45,48
	c3.1,8.4,9.7,12.3,14,19c2,6.3,4,12.7,6,19c6.7,9,13.3,18,20,27c4.6,5.5,13.2,3.1,17,10c8,28.6-10.4,43.6-15,61
	c-0.3,7.7-0.7,15.3-1,23c-4,13.8-15,22.3-22,33c-25.5,38.8-39.6,71.3-93,83c0,0.7,0,1.3,0,2c7.3,0.8,9,4.4,11,10
	c-32-12.1-25.3,1.3-47,6c-21.2,4.6-48.2,0.3-65,4c-3.2-6.6-41.9-12.8-52-16c-7.4-14.8-7-20.6-22-28c-16.5,16-72.9,9-82,26
	c12.9,2.6,12,7.2,18,16c-9.5,0.5-18.8,3.5-28,1c-0.7-3.3-1.3-6.7-2-10c-6-0.7-12-1.3-18-2c-0.7-4-1.3-8-2-12c-6.9,0-14.6-0.8-16-7
	c2.3-2.7,4.7-5.3,7-8c-4.5-11.2-12-10.3-15-26c-5.7-0.3-11.3-0.7-17-1c-0.7-48.1,46.1-28.3,16-93c-0.7,0-1.3,0-2,0c-2,5-4.5,6.6-9,9
	c-35.5-23.8-57.7,29-98,7c-0.3-19.5-18.3-25.7-32-32c-6.3,2.3-12.7,4.7-19,7c-0.3-2.3-0.7-4.7-1-7c-15.9,0.2-71.3-24-77-31
	c-2-5.3-4-10.7-6-16c-3.7-4.6-11-5-14-11c-1-4-2-8-3-12c-5.1-5.7-14.7-2-22-6c-1.7-1-38-37-38-37c-1.6-4.6-1.4-29.2-1-32
	c6.6,0.9,8.7,2.4,14,0c0.5-24.8,7.2-46.9-7-65c-6.7-4.7-13.3-9.3-20-14c-0.7-5-1.3-10-2-15c-4.3-5.7-8.7-11.3-13-17
	c0.3-1.7,0.7-3.3,1-5c3.3-2,6.7-4,10-6c4.4-10.2-6.1-24-13-27c-4.4-30.2,27.6-37.3,47-24c8.4-4.1,10.8-0.8,19-1
	c5.7-2.7,11.3-5.3,17-8c10.4-3.1,25.2-1.8,34-4c5.7-11,11.3-22,17-33c3.4-11.4,1.8-20.9,7-29c9.7,1.3,19.3,2.7,29,4
	c4.6-8.9,9.4-20.2,15-29c17.6-0.4,23.7,5.8,33,13c4-0.3,8-0.7,12-1c0.3-6.7,0.7-13.3,1-20c5.9-0.8,9.1-2.3,12-6c-1.7-4.2-2-8-1-13
	c11.3,0.2,15.3,2.8,23,1c3.9,20.4,26.6,27,31,45c3.3,13.3-6.9,28.7,1,40c10.5,15.1,37.7,18,49,33c7.9,10.5,8.9,29.9,20,37
	c16.7,10.8,36.4,6.1,60,12c17.5,4.4,34.3,14.2,46,25c16.8,0,17.9-9.1,29-12c16,0,32,0,48,0c8.7-2.4,41.3-23.4,48-30
	c-1.8-11.5-6.6-24-2-32c0.7-0.3,1.3-0.7,2-1c5,2,10,4,15,6c5.5,1.3,42.9-15.3,45-18c5.2-6.6,7.4-15.9,15-20c12.7-1.7,25.3-3.3,38-5
	c-0.3-3.7-0.7-7.3-1-11c-6.7-5.3-13.3-10.7-20-16c-10.1,2-31.9,13.1-43,5c4.9-12.6,9.2-26.5,16-37c11.3,0.4,20.9,0.2,27-4
	c7.4-15.9,13.2-34.4,21-55c-4.8-2.6-6.1-0.9-7-8c1.7-3,3.3-6,5-9c19.7-3.2,33.8-15.6,59-11c13.1,10.2,24.8,26,35,39
	c6.3,8,6.5,20.2,16,25c5.7,0.7,11.3,1.3,17,2c2,3.3,4,6.7,6,10c4,1.3,8,2.7,12,4c0.4,37.1,47.2,1.7,54-6c4,0.3,8,0.7,12,1
	c-4,25.2-4.1,49.4-14,69c-13.2,3-13.9,10.8-24,15c0,0.3,0,0.7,0,1c2,0.7,4,1.3,6,2c-1,37.7-14.2,51.5-33,71c-8.1-0.3-17.9-0.5-23,2
	c-1,2-34.2,42.6-36,44c-6.7,5.2-17.5,4.8-22,12c-2.3,6.3-4.7,12.7-7,19c-2.3,0-4.7,0-7,0c-3.1-1.8-5.2-2.8-7-6c-0.7-0.7-1.3-1.3-2-2
	c2-2.3,4-4.7,6-7c-2.3-2.3-4.7-4.7-7-7c0.3-0.7,0.7-1.3,1-2c4-2,8-4,12-6c-0.3-5-0.7-10-1-15c-0.7-0.3-1.3-0.7-2-1
	c-23.5,4-33.5,24.8-44,43c-6.7,0.9-13.4,2.9-17,7c0.3,1.3,0.7,2.7,1,4c3.6,7.6,11.8,8.3,19,12c1,5.3,2,10.7,3,16c1.3,0,2.7,0,4,0
	c1.3-0.7,2.7-1.3,4-2C760.3,361,760.7,356,761,351z"/>
<path fill-rule="evenodd" clip-rule="evenodd" fill="none" stroke="#000000" stroke-width="0.5" stroke-miterlimit="10" d="M625,706
	c2,0.3,4,0.7,6,1c1.3,0.7,2.7,1.3,4,2c-0.7,1-1.3,2-2,3c-11.2,0.9-16.1,5.3-19,15c-1.3-1-2.7-2-4-3c3.7-5.7,7.3-11.3,11-17
	C622.3,706.7,623.7,706.3,625,706z"/>
<path fill-rule="evenodd" clip-rule="evenodd" fill="none" stroke="#000000" stroke-width="0.5" stroke-miterlimit="10" d="M596,709
	c5.3,6.2,4,11.9,13,15c-1.3,1.3-2.7,2.7-4,4c-7.1-2.1-11.5-3.6-16-8c0.3-1.3,0.7-2.7,1-4C592,713.7,594,711.3,596,709z"/>
<path fill-rule="evenodd" clip-rule="evenodd" fill="none" stroke="#000000" stroke-width="0.5" stroke-miterlimit="10" d="M613,729
	c0,1.7,0,3.3,0,5c-0.3,0-0.7,0-1,0c-1.3-0.7-2.7-1.3-4-2C609.7,731,611.3,730,613,729z"/>
</svg>
